<svg width="650" height="223" viewBox="0 0 650 223" fill="none" xmlns="http://www.w3.org/2000/svg">
<g filter="url(#filter0_d)">
<path d="M100.946 26L30 67.3082V148.808L100.946 189L173 148.808V67.3082L100.946 26Z" fill="#72A860"/>
</g>
<g filter="url(#filter1_d)">
<path d="M101.113 144.915L134.516 109.999H113.643V75.0825H88.5911V109.999H67.7114L101.113 144.915Z" fill="white"/>
</g>
<path d="M250.795 101.108C249.517 94.4602 244.199 90.2159 234.994 90.2159C225.534 90.2159 219.091 94.8693 219.116 102.131C219.091 107.858 222.619 111.642 230.162 113.202L236.861 114.608C240.466 115.401 242.153 116.858 242.153 119.082C242.153 121.767 239.239 123.787 234.841 123.787C230.597 123.787 227.835 121.946 227.043 118.418L218.017 119.287C219.168 126.497 225.227 130.767 234.866 130.767C244.685 130.767 251.614 125.679 251.639 118.239C251.614 112.639 248.009 109.213 240.594 107.602L233.895 106.17C229.906 105.276 228.321 103.895 228.347 101.619C228.321 98.9602 231.261 97.1193 235.122 97.1193C239.392 97.1193 241.642 99.446 242.358 102.028L250.795 101.108ZM278.882 90.7273H271.135V81.3182H261.879V90.7273H256.305V97.8864H261.879V119.722C261.828 127.111 267.197 130.741 274.152 130.537C276.786 130.46 278.601 129.949 279.598 129.616L278.038 122.381C277.527 122.509 276.479 122.739 275.328 122.739C273.001 122.739 271.135 121.92 271.135 118.188V97.8864H278.882V90.7273ZM286.623 130H295.879V106.912C295.879 101.926 299.637 98.3977 304.725 98.3977C306.285 98.3977 308.228 98.679 309.021 98.9347V90.4205C308.177 90.267 306.719 90.1648 305.697 90.1648C301.197 90.1648 297.438 92.7216 296.006 97.2727H295.597V90.7273H286.623V130ZM330.939 130.767C340.092 130.767 346.382 126.293 348.018 119.466L339.376 118.494C338.124 121.818 335.055 123.557 331.067 123.557C325.084 123.557 321.121 119.619 321.044 112.895H348.402V110.057C348.402 96.2756 340.118 90.2159 330.453 90.2159C319.203 90.2159 311.865 98.4744 311.865 110.594C311.865 122.918 319.101 130.767 330.939 130.767ZM321.07 106.656C321.351 101.645 325.058 97.4261 330.581 97.4261C335.899 97.4261 339.479 101.312 339.53 106.656H321.07ZM367.533 130.793C373.695 130.793 377.377 127.903 379.065 124.605H379.371V130H388.269V103.716C388.269 93.3352 379.806 90.2159 372.315 90.2159C364.056 90.2159 357.715 93.8977 355.67 101.057L364.312 102.284C365.232 99.5994 367.84 97.2983 372.366 97.2983C376.661 97.2983 379.013 99.4972 379.013 103.358V103.511C379.013 106.17 376.227 106.298 369.298 107.04C361.678 107.858 354.391 110.134 354.391 118.98C354.391 126.702 360.042 130.793 367.533 130.793ZM369.937 123.991C366.076 123.991 363.315 122.227 363.315 118.827C363.315 115.273 366.408 113.79 370.55 113.202C372.979 112.869 377.837 112.256 379.039 111.284V115.912C379.039 120.284 375.511 123.991 369.937 123.991ZM397.576 130H406.832V106.119C406.832 101.287 410.053 98.0142 414.042 98.0142C417.954 98.0142 420.638 100.648 420.638 104.688V130H429.715V105.506C429.715 101.082 432.349 98.0142 436.823 98.0142C440.556 98.0142 443.522 100.213 443.522 105.071V130H452.803V103.639C452.803 94.8693 447.741 90.2159 440.531 90.2159C434.829 90.2159 430.482 93.0284 428.744 97.4006H428.335C426.826 92.9517 423.016 90.2159 417.724 90.2159C412.457 90.2159 408.519 92.9261 406.883 97.4006H406.423V90.7273H397.576V130ZM476.767 130.69C483.517 130.69 486.56 126.676 488.017 123.812H488.58V130H497.682V77.6364H488.401V97.2216H488.017C486.611 94.3835 483.722 90.2159 476.793 90.2159C467.716 90.2159 460.582 97.3239 460.582 110.415C460.582 123.352 467.511 130.69 476.767 130.69ZM479.349 123.097C473.239 123.097 470.017 117.727 470.017 110.364C470.017 103.051 473.188 97.8097 479.349 97.8097C485.307 97.8097 488.58 102.744 488.58 110.364C488.58 117.983 485.256 123.097 479.349 123.097ZM524.675 130.767C536.181 130.767 543.494 122.662 543.494 110.517C543.494 98.3466 536.181 90.2159 524.675 90.2159C513.17 90.2159 505.857 98.3466 505.857 110.517C505.857 122.662 513.17 130.767 524.675 130.767ZM524.727 123.352C518.36 123.352 515.241 117.676 515.241 110.491C515.241 103.307 518.36 97.554 524.727 97.554C530.991 97.554 534.11 103.307 534.11 110.491C534.11 117.676 530.991 123.352 524.727 123.352ZM558.4 130H568.065L575.428 103.46H575.965L583.329 130H592.968L604.09 90.7273H594.63L587.829 118.188H587.445L580.388 90.7273H571.056L563.999 118.341H563.641L556.738 90.7273H547.303L558.4 130ZM619.808 106.989C619.808 101.312 623.234 98.0398 628.118 98.0398C632.899 98.0398 635.763 101.185 635.763 106.426V130H645.018V104.994C645.044 95.5852 639.675 90.2159 631.57 90.2159C625.689 90.2159 621.649 93.0284 619.859 97.4006H619.399V90.7273H610.553V130H619.808V106.989Z" fill="black"/>
<defs>
<filter id="filter0_d" x="0" y="0" width="203" height="223" filterUnits="userSpaceOnUse" color-interpolation-filters="sRGB">
<feFlood flood-opacity="0" result="BackgroundImageFix"/>
<feColorMatrix in="SourceAlpha" type="matrix" values="0 0 0 0 0 0 0 0 0 0 0 0 0 0 0 0 0 0 127 0"/>
<feOffset dy="4"/>
<feGaussianBlur stdDeviation="15"/>
<feColorMatrix type="matrix" values="0 0 0 0 0 0 0 0 0 0 0 0 0 0 0 0 0 0 0.25 0"/>
<feBlend mode="normal" in2="BackgroundImageFix" result="effect1_dropShadow"/>
<feBlend mode="normal" in="SourceGraphic" in2="effect1_dropShadow" result="shape"/>
</filter>
<filter id="filter1_d" x="37.7114" y="49.0825" width="126.804" height="129.833" filterUnits="userSpaceOnUse" color-interpolation-filters="sRGB">
<feFlood flood-opacity="0" result="BackgroundImageFix"/>
<feColorMatrix in="SourceAlpha" type="matrix" values="0 0 0 0 0 0 0 0 0 0 0 0 0 0 0 0 0 0 127 0"/>
<feOffset dy="4"/>
<feGaussianBlur stdDeviation="15"/>
<feColorMatrix type="matrix" values="0 0 0 0 0.628438 0 0 0 0 0.9375 0 0 0 0 0.578125 0 0 0 0.6 0"/>
<feBlend mode="normal" in2="BackgroundImageFix" result="effect1_dropShadow"/>
<feBlend mode="normal" in="SourceGraphic" in2="effect1_dropShadow" result="shape"/>
</filter>
</defs>
</svg>
